<mxfile host="app.diagrams.net" modified="2024-01-17T15:52:09.181Z" agent="Mozilla/5.0 (Windows NT 10.0; Win64; x64) AppleWebKit/537.36 (KHTML, like Gecko) Chrome/120.0.0.0 Safari/537.36" etag="OWO2cFXHHMTjp8rJsr8Y" version="22.1.21" type="device">
  <diagram id="C5RBs43oDa-KdzZeNtuy" name="Page-1">
    <mxGraphModel dx="2870" dy="1098" grid="1" gridSize="10" guides="1" tooltips="1" connect="1" arrows="1" fold="1" page="1" pageScale="1" pageWidth="827" pageHeight="1169" math="0" shadow="0">
      <root>
        <mxCell id="WIyWlLk6GJQsqaUBKTNV-0" />
        <mxCell id="WIyWlLk6GJQsqaUBKTNV-1" parent="WIyWlLk6GJQsqaUBKTNV-0" />
        <mxCell id="lWDBViMYoTq2zhWu20VO-0" value="Step 1" style="rounded=0;whiteSpace=wrap;html=1;" vertex="1" parent="WIyWlLk6GJQsqaUBKTNV-1">
          <mxGeometry width="120" height="60" as="geometry" />
        </mxCell>
        <mxCell id="lWDBViMYoTq2zhWu20VO-2" value="Step 2" style="rounded=0;whiteSpace=wrap;html=1;" vertex="1" parent="WIyWlLk6GJQsqaUBKTNV-1">
          <mxGeometry y="130" width="120" height="60" as="geometry" />
        </mxCell>
        <mxCell id="lWDBViMYoTq2zhWu20VO-4" value="Step 3" style="rounded=0;whiteSpace=wrap;html=1;" vertex="1" parent="WIyWlLk6GJQsqaUBKTNV-1">
          <mxGeometry x="-0.5" y="260" width="120" height="60" as="geometry" />
        </mxCell>
        <mxCell id="lWDBViMYoTq2zhWu20VO-6" value="Step 4" style="rounded=0;whiteSpace=wrap;html=1;" vertex="1" parent="WIyWlLk6GJQsqaUBKTNV-1">
          <mxGeometry x="-0.5" y="390" width="120" height="60" as="geometry" />
        </mxCell>
        <mxCell id="lWDBViMYoTq2zhWu20VO-11" value="" style="edgeStyle=orthogonalEdgeStyle;rounded=0;orthogonalLoop=1;jettySize=auto;html=1;" edge="1" parent="WIyWlLk6GJQsqaUBKTNV-1" source="lWDBViMYoTq2zhWu20VO-8" target="lWDBViMYoTq2zhWu20VO-10">
          <mxGeometry relative="1" as="geometry" />
        </mxCell>
        <mxCell id="lWDBViMYoTq2zhWu20VO-8" value="a" style="ellipse;whiteSpace=wrap;html=1;" vertex="1" parent="WIyWlLk6GJQsqaUBKTNV-1">
          <mxGeometry x="150" y="20" width="40" height="20" as="geometry" />
        </mxCell>
        <mxCell id="lWDBViMYoTq2zhWu20VO-9" value="" style="endArrow=classic;html=1;rounded=0;entryX=0;entryY=0.5;entryDx=0;entryDy=0;" edge="1" parent="WIyWlLk6GJQsqaUBKTNV-1" target="lWDBViMYoTq2zhWu20VO-8">
          <mxGeometry width="50" height="50" relative="1" as="geometry">
            <mxPoint x="119.5" y="30" as="sourcePoint" />
            <mxPoint x="140" y="30" as="targetPoint" />
          </mxGeometry>
        </mxCell>
        <mxCell id="lWDBViMYoTq2zhWu20VO-15" value="" style="edgeStyle=orthogonalEdgeStyle;rounded=0;orthogonalLoop=1;jettySize=auto;html=1;" edge="1" parent="WIyWlLk6GJQsqaUBKTNV-1" source="lWDBViMYoTq2zhWu20VO-10" target="lWDBViMYoTq2zhWu20VO-14">
          <mxGeometry relative="1" as="geometry" />
        </mxCell>
        <mxCell id="lWDBViMYoTq2zhWu20VO-10" value="b" style="ellipse;whiteSpace=wrap;html=1;" vertex="1" parent="WIyWlLk6GJQsqaUBKTNV-1">
          <mxGeometry x="210" y="20" width="40" height="20" as="geometry" />
        </mxCell>
        <mxCell id="lWDBViMYoTq2zhWu20VO-17" value="" style="edgeStyle=orthogonalEdgeStyle;rounded=0;orthogonalLoop=1;jettySize=auto;html=1;" edge="1" parent="WIyWlLk6GJQsqaUBKTNV-1" source="lWDBViMYoTq2zhWu20VO-14" target="lWDBViMYoTq2zhWu20VO-16">
          <mxGeometry relative="1" as="geometry" />
        </mxCell>
        <mxCell id="lWDBViMYoTq2zhWu20VO-14" value="c" style="ellipse;whiteSpace=wrap;html=1;" vertex="1" parent="WIyWlLk6GJQsqaUBKTNV-1">
          <mxGeometry x="270" y="20" width="40" height="20" as="geometry" />
        </mxCell>
        <mxCell id="lWDBViMYoTq2zhWu20VO-21" value="" style="edgeStyle=orthogonalEdgeStyle;rounded=0;orthogonalLoop=1;jettySize=auto;html=1;" edge="1" parent="WIyWlLk6GJQsqaUBKTNV-1" source="lWDBViMYoTq2zhWu20VO-16" target="lWDBViMYoTq2zhWu20VO-20">
          <mxGeometry relative="1" as="geometry" />
        </mxCell>
        <mxCell id="lWDBViMYoTq2zhWu20VO-16" value="d" style="ellipse;whiteSpace=wrap;html=1;" vertex="1" parent="WIyWlLk6GJQsqaUBKTNV-1">
          <mxGeometry x="330" y="20" width="40" height="20" as="geometry" />
        </mxCell>
        <mxCell id="lWDBViMYoTq2zhWu20VO-23" value="" style="edgeStyle=orthogonalEdgeStyle;rounded=0;orthogonalLoop=1;jettySize=auto;html=1;" edge="1" parent="WIyWlLk6GJQsqaUBKTNV-1" source="lWDBViMYoTq2zhWu20VO-20" target="lWDBViMYoTq2zhWu20VO-22">
          <mxGeometry relative="1" as="geometry" />
        </mxCell>
        <mxCell id="lWDBViMYoTq2zhWu20VO-20" value="e" style="ellipse;whiteSpace=wrap;html=1;" vertex="1" parent="WIyWlLk6GJQsqaUBKTNV-1">
          <mxGeometry x="393.5" y="20" width="40" height="20" as="geometry" />
        </mxCell>
        <mxCell id="lWDBViMYoTq2zhWu20VO-25" value="" style="edgeStyle=orthogonalEdgeStyle;rounded=0;orthogonalLoop=1;jettySize=auto;html=1;" edge="1" parent="WIyWlLk6GJQsqaUBKTNV-1" source="lWDBViMYoTq2zhWu20VO-22" target="lWDBViMYoTq2zhWu20VO-24">
          <mxGeometry relative="1" as="geometry" />
        </mxCell>
        <mxCell id="lWDBViMYoTq2zhWu20VO-22" value="f" style="ellipse;whiteSpace=wrap;html=1;" vertex="1" parent="WIyWlLk6GJQsqaUBKTNV-1">
          <mxGeometry x="450" y="20" width="40" height="20" as="geometry" />
        </mxCell>
        <mxCell id="lWDBViMYoTq2zhWu20VO-27" value="" style="edgeStyle=orthogonalEdgeStyle;rounded=0;orthogonalLoop=1;jettySize=auto;html=1;" edge="1" parent="WIyWlLk6GJQsqaUBKTNV-1" source="lWDBViMYoTq2zhWu20VO-24" target="lWDBViMYoTq2zhWu20VO-26">
          <mxGeometry relative="1" as="geometry" />
        </mxCell>
        <mxCell id="lWDBViMYoTq2zhWu20VO-24" value="g" style="ellipse;whiteSpace=wrap;html=1;" vertex="1" parent="WIyWlLk6GJQsqaUBKTNV-1">
          <mxGeometry x="510" y="20" width="40" height="20" as="geometry" />
        </mxCell>
        <mxCell id="lWDBViMYoTq2zhWu20VO-29" value="" style="edgeStyle=orthogonalEdgeStyle;rounded=0;orthogonalLoop=1;jettySize=auto;html=1;" edge="1" parent="WIyWlLk6GJQsqaUBKTNV-1" source="lWDBViMYoTq2zhWu20VO-26" target="lWDBViMYoTq2zhWu20VO-28">
          <mxGeometry relative="1" as="geometry" />
        </mxCell>
        <mxCell id="lWDBViMYoTq2zhWu20VO-26" value="h" style="ellipse;whiteSpace=wrap;html=1;" vertex="1" parent="WIyWlLk6GJQsqaUBKTNV-1">
          <mxGeometry x="570" y="20" width="40" height="20" as="geometry" />
        </mxCell>
        <mxCell id="lWDBViMYoTq2zhWu20VO-31" value="" style="edgeStyle=orthogonalEdgeStyle;rounded=0;orthogonalLoop=1;jettySize=auto;html=1;" edge="1" parent="WIyWlLk6GJQsqaUBKTNV-1" source="lWDBViMYoTq2zhWu20VO-28" target="lWDBViMYoTq2zhWu20VO-30">
          <mxGeometry relative="1" as="geometry" />
        </mxCell>
        <mxCell id="lWDBViMYoTq2zhWu20VO-28" value="i" style="ellipse;whiteSpace=wrap;html=1;" vertex="1" parent="WIyWlLk6GJQsqaUBKTNV-1">
          <mxGeometry x="630" y="20" width="40" height="20" as="geometry" />
        </mxCell>
        <mxCell id="lWDBViMYoTq2zhWu20VO-33" value="" style="edgeStyle=orthogonalEdgeStyle;rounded=0;orthogonalLoop=1;jettySize=auto;html=1;" edge="1" parent="WIyWlLk6GJQsqaUBKTNV-1" source="lWDBViMYoTq2zhWu20VO-30" target="lWDBViMYoTq2zhWu20VO-32">
          <mxGeometry relative="1" as="geometry" />
        </mxCell>
        <mxCell id="lWDBViMYoTq2zhWu20VO-30" value="j" style="ellipse;whiteSpace=wrap;html=1;" vertex="1" parent="WIyWlLk6GJQsqaUBKTNV-1">
          <mxGeometry x="690" y="20" width="40" height="20" as="geometry" />
        </mxCell>
        <mxCell id="lWDBViMYoTq2zhWu20VO-35" value="" style="edgeStyle=orthogonalEdgeStyle;rounded=0;orthogonalLoop=1;jettySize=auto;html=1;" edge="1" parent="WIyWlLk6GJQsqaUBKTNV-1" source="lWDBViMYoTq2zhWu20VO-32" target="lWDBViMYoTq2zhWu20VO-34">
          <mxGeometry relative="1" as="geometry" />
        </mxCell>
        <mxCell id="lWDBViMYoTq2zhWu20VO-32" value="k" style="ellipse;whiteSpace=wrap;html=1;" vertex="1" parent="WIyWlLk6GJQsqaUBKTNV-1">
          <mxGeometry x="750" y="20" width="40" height="20" as="geometry" />
        </mxCell>
        <mxCell id="lWDBViMYoTq2zhWu20VO-37" value="" style="edgeStyle=orthogonalEdgeStyle;rounded=0;orthogonalLoop=1;jettySize=auto;html=1;" edge="1" parent="WIyWlLk6GJQsqaUBKTNV-1" source="lWDBViMYoTq2zhWu20VO-34" target="lWDBViMYoTq2zhWu20VO-36">
          <mxGeometry relative="1" as="geometry" />
        </mxCell>
        <mxCell id="lWDBViMYoTq2zhWu20VO-34" value="l" style="ellipse;whiteSpace=wrap;html=1;" vertex="1" parent="WIyWlLk6GJQsqaUBKTNV-1">
          <mxGeometry x="810" y="20" width="40" height="20" as="geometry" />
        </mxCell>
        <mxCell id="lWDBViMYoTq2zhWu20VO-39" value="" style="edgeStyle=orthogonalEdgeStyle;rounded=0;orthogonalLoop=1;jettySize=auto;html=1;" edge="1" parent="WIyWlLk6GJQsqaUBKTNV-1" source="lWDBViMYoTq2zhWu20VO-36" target="lWDBViMYoTq2zhWu20VO-38">
          <mxGeometry relative="1" as="geometry" />
        </mxCell>
        <mxCell id="lWDBViMYoTq2zhWu20VO-36" value="m" style="ellipse;whiteSpace=wrap;html=1;" vertex="1" parent="WIyWlLk6GJQsqaUBKTNV-1">
          <mxGeometry x="870" y="20" width="40" height="20" as="geometry" />
        </mxCell>
        <mxCell id="lWDBViMYoTq2zhWu20VO-41" value="" style="edgeStyle=orthogonalEdgeStyle;rounded=0;orthogonalLoop=1;jettySize=auto;html=1;" edge="1" parent="WIyWlLk6GJQsqaUBKTNV-1" source="lWDBViMYoTq2zhWu20VO-38" target="lWDBViMYoTq2zhWu20VO-40">
          <mxGeometry relative="1" as="geometry" />
        </mxCell>
        <mxCell id="lWDBViMYoTq2zhWu20VO-38" value="m" style="ellipse;whiteSpace=wrap;html=1;" vertex="1" parent="WIyWlLk6GJQsqaUBKTNV-1">
          <mxGeometry x="930" y="20" width="40" height="20" as="geometry" />
        </mxCell>
        <mxCell id="lWDBViMYoTq2zhWu20VO-43" value="" style="edgeStyle=orthogonalEdgeStyle;rounded=0;orthogonalLoop=1;jettySize=auto;html=1;" edge="1" parent="WIyWlLk6GJQsqaUBKTNV-1" source="lWDBViMYoTq2zhWu20VO-40" target="lWDBViMYoTq2zhWu20VO-42">
          <mxGeometry relative="1" as="geometry" />
        </mxCell>
        <mxCell id="lWDBViMYoTq2zhWu20VO-40" value="o" style="ellipse;whiteSpace=wrap;html=1;" vertex="1" parent="WIyWlLk6GJQsqaUBKTNV-1">
          <mxGeometry x="990" y="20" width="40" height="20" as="geometry" />
        </mxCell>
        <mxCell id="lWDBViMYoTq2zhWu20VO-45" value="" style="edgeStyle=orthogonalEdgeStyle;rounded=0;orthogonalLoop=1;jettySize=auto;html=1;" edge="1" parent="WIyWlLk6GJQsqaUBKTNV-1" source="lWDBViMYoTq2zhWu20VO-42" target="lWDBViMYoTq2zhWu20VO-44">
          <mxGeometry relative="1" as="geometry" />
        </mxCell>
        <mxCell id="lWDBViMYoTq2zhWu20VO-42" value="p" style="ellipse;whiteSpace=wrap;html=1;" vertex="1" parent="WIyWlLk6GJQsqaUBKTNV-1">
          <mxGeometry x="1050" y="20" width="40" height="20" as="geometry" />
        </mxCell>
        <mxCell id="lWDBViMYoTq2zhWu20VO-47" style="edgeStyle=orthogonalEdgeStyle;rounded=0;orthogonalLoop=1;jettySize=auto;html=1;exitX=0.5;exitY=1;exitDx=0;exitDy=0;entryX=0.5;entryY=0;entryDx=0;entryDy=0;" edge="1" parent="WIyWlLk6GJQsqaUBKTNV-1" source="lWDBViMYoTq2zhWu20VO-44" target="lWDBViMYoTq2zhWu20VO-2">
          <mxGeometry relative="1" as="geometry" />
        </mxCell>
        <mxCell id="lWDBViMYoTq2zhWu20VO-44" value="q" style="ellipse;whiteSpace=wrap;html=1;" vertex="1" parent="WIyWlLk6GJQsqaUBKTNV-1">
          <mxGeometry x="1110" y="20" width="40" height="20" as="geometry" />
        </mxCell>
        <mxCell id="lWDBViMYoTq2zhWu20VO-49" value="" style="endArrow=classic;html=1;rounded=0;entryX=0;entryY=0.5;entryDx=0;entryDy=0;" edge="1" parent="WIyWlLk6GJQsqaUBKTNV-1">
          <mxGeometry width="50" height="50" relative="1" as="geometry">
            <mxPoint x="119.5" y="159.5" as="sourcePoint" />
            <mxPoint x="150" y="159.5" as="targetPoint" />
          </mxGeometry>
        </mxCell>
        <mxCell id="lWDBViMYoTq2zhWu20VO-107" value="" style="edgeStyle=orthogonalEdgeStyle;rounded=0;orthogonalLoop=1;jettySize=auto;html=1;" edge="1" parent="WIyWlLk6GJQsqaUBKTNV-1" source="lWDBViMYoTq2zhWu20VO-108" target="lWDBViMYoTq2zhWu20VO-110">
          <mxGeometry relative="1" as="geometry" />
        </mxCell>
        <mxCell id="lWDBViMYoTq2zhWu20VO-108" value="a" style="ellipse;whiteSpace=wrap;html=1;" vertex="1" parent="WIyWlLk6GJQsqaUBKTNV-1">
          <mxGeometry x="149" y="151" width="40" height="20" as="geometry" />
        </mxCell>
        <mxCell id="lWDBViMYoTq2zhWu20VO-109" value="" style="edgeStyle=orthogonalEdgeStyle;rounded=0;orthogonalLoop=1;jettySize=auto;html=1;" edge="1" parent="WIyWlLk6GJQsqaUBKTNV-1" source="lWDBViMYoTq2zhWu20VO-110" target="lWDBViMYoTq2zhWu20VO-112">
          <mxGeometry relative="1" as="geometry" />
        </mxCell>
        <mxCell id="lWDBViMYoTq2zhWu20VO-110" value="b" style="ellipse;whiteSpace=wrap;html=1;" vertex="1" parent="WIyWlLk6GJQsqaUBKTNV-1">
          <mxGeometry x="209" y="151" width="40" height="20" as="geometry" />
        </mxCell>
        <mxCell id="lWDBViMYoTq2zhWu20VO-111" value="" style="edgeStyle=orthogonalEdgeStyle;rounded=0;orthogonalLoop=1;jettySize=auto;html=1;" edge="1" parent="WIyWlLk6GJQsqaUBKTNV-1" source="lWDBViMYoTq2zhWu20VO-112" target="lWDBViMYoTq2zhWu20VO-114">
          <mxGeometry relative="1" as="geometry" />
        </mxCell>
        <mxCell id="lWDBViMYoTq2zhWu20VO-112" value="c" style="ellipse;whiteSpace=wrap;html=1;" vertex="1" parent="WIyWlLk6GJQsqaUBKTNV-1">
          <mxGeometry x="269" y="151" width="40" height="20" as="geometry" />
        </mxCell>
        <mxCell id="lWDBViMYoTq2zhWu20VO-113" value="" style="edgeStyle=orthogonalEdgeStyle;rounded=0;orthogonalLoop=1;jettySize=auto;html=1;" edge="1" parent="WIyWlLk6GJQsqaUBKTNV-1" source="lWDBViMYoTq2zhWu20VO-114" target="lWDBViMYoTq2zhWu20VO-116">
          <mxGeometry relative="1" as="geometry" />
        </mxCell>
        <mxCell id="lWDBViMYoTq2zhWu20VO-114" value="d" style="ellipse;whiteSpace=wrap;html=1;" vertex="1" parent="WIyWlLk6GJQsqaUBKTNV-1">
          <mxGeometry x="329" y="151" width="40" height="20" as="geometry" />
        </mxCell>
        <mxCell id="lWDBViMYoTq2zhWu20VO-115" value="" style="edgeStyle=orthogonalEdgeStyle;rounded=0;orthogonalLoop=1;jettySize=auto;html=1;" edge="1" parent="WIyWlLk6GJQsqaUBKTNV-1" source="lWDBViMYoTq2zhWu20VO-116" target="lWDBViMYoTq2zhWu20VO-118">
          <mxGeometry relative="1" as="geometry" />
        </mxCell>
        <mxCell id="lWDBViMYoTq2zhWu20VO-116" value="e" style="ellipse;whiteSpace=wrap;html=1;" vertex="1" parent="WIyWlLk6GJQsqaUBKTNV-1">
          <mxGeometry x="392.5" y="151" width="40" height="20" as="geometry" />
        </mxCell>
        <mxCell id="lWDBViMYoTq2zhWu20VO-117" value="" style="edgeStyle=orthogonalEdgeStyle;rounded=0;orthogonalLoop=1;jettySize=auto;html=1;" edge="1" parent="WIyWlLk6GJQsqaUBKTNV-1" source="lWDBViMYoTq2zhWu20VO-118" target="lWDBViMYoTq2zhWu20VO-120">
          <mxGeometry relative="1" as="geometry" />
        </mxCell>
        <mxCell id="lWDBViMYoTq2zhWu20VO-118" value="f" style="ellipse;whiteSpace=wrap;html=1;" vertex="1" parent="WIyWlLk6GJQsqaUBKTNV-1">
          <mxGeometry x="449" y="151" width="40" height="20" as="geometry" />
        </mxCell>
        <mxCell id="lWDBViMYoTq2zhWu20VO-119" value="" style="edgeStyle=orthogonalEdgeStyle;rounded=0;orthogonalLoop=1;jettySize=auto;html=1;" edge="1" parent="WIyWlLk6GJQsqaUBKTNV-1" source="lWDBViMYoTq2zhWu20VO-120" target="lWDBViMYoTq2zhWu20VO-122">
          <mxGeometry relative="1" as="geometry" />
        </mxCell>
        <mxCell id="lWDBViMYoTq2zhWu20VO-120" value="g" style="ellipse;whiteSpace=wrap;html=1;" vertex="1" parent="WIyWlLk6GJQsqaUBKTNV-1">
          <mxGeometry x="509" y="151" width="40" height="20" as="geometry" />
        </mxCell>
        <mxCell id="lWDBViMYoTq2zhWu20VO-121" value="" style="edgeStyle=orthogonalEdgeStyle;rounded=0;orthogonalLoop=1;jettySize=auto;html=1;" edge="1" parent="WIyWlLk6GJQsqaUBKTNV-1" source="lWDBViMYoTq2zhWu20VO-122" target="lWDBViMYoTq2zhWu20VO-124">
          <mxGeometry relative="1" as="geometry" />
        </mxCell>
        <mxCell id="lWDBViMYoTq2zhWu20VO-122" value="h" style="ellipse;whiteSpace=wrap;html=1;" vertex="1" parent="WIyWlLk6GJQsqaUBKTNV-1">
          <mxGeometry x="569" y="151" width="40" height="20" as="geometry" />
        </mxCell>
        <mxCell id="lWDBViMYoTq2zhWu20VO-123" value="" style="edgeStyle=orthogonalEdgeStyle;rounded=0;orthogonalLoop=1;jettySize=auto;html=1;" edge="1" parent="WIyWlLk6GJQsqaUBKTNV-1" source="lWDBViMYoTq2zhWu20VO-124" target="lWDBViMYoTq2zhWu20VO-126">
          <mxGeometry relative="1" as="geometry" />
        </mxCell>
        <mxCell id="lWDBViMYoTq2zhWu20VO-124" value="i" style="ellipse;whiteSpace=wrap;html=1;" vertex="1" parent="WIyWlLk6GJQsqaUBKTNV-1">
          <mxGeometry x="629" y="151" width="40" height="20" as="geometry" />
        </mxCell>
        <mxCell id="lWDBViMYoTq2zhWu20VO-131" value="" style="edgeStyle=orthogonalEdgeStyle;rounded=0;orthogonalLoop=1;jettySize=auto;html=1;" edge="1" parent="WIyWlLk6GJQsqaUBKTNV-1" source="lWDBViMYoTq2zhWu20VO-126" target="lWDBViMYoTq2zhWu20VO-130">
          <mxGeometry relative="1" as="geometry" />
        </mxCell>
        <mxCell id="lWDBViMYoTq2zhWu20VO-126" value="j" style="ellipse;whiteSpace=wrap;html=1;" vertex="1" parent="WIyWlLk6GJQsqaUBKTNV-1">
          <mxGeometry x="689" y="151" width="40" height="20" as="geometry" />
        </mxCell>
        <mxCell id="lWDBViMYoTq2zhWu20VO-136" value="" style="edgeStyle=orthogonalEdgeStyle;rounded=0;orthogonalLoop=1;jettySize=auto;html=1;entryX=0.5;entryY=0;entryDx=0;entryDy=0;" edge="1" parent="WIyWlLk6GJQsqaUBKTNV-1" source="lWDBViMYoTq2zhWu20VO-130" target="lWDBViMYoTq2zhWu20VO-4">
          <mxGeometry relative="1" as="geometry">
            <mxPoint x="770" y="230" as="targetPoint" />
            <Array as="points">
              <mxPoint x="770" y="210" />
              <mxPoint x="60" y="210" />
            </Array>
          </mxGeometry>
        </mxCell>
        <mxCell id="lWDBViMYoTq2zhWu20VO-130" value="k" style="ellipse;whiteSpace=wrap;html=1;" vertex="1" parent="WIyWlLk6GJQsqaUBKTNV-1">
          <mxGeometry x="750" y="151" width="40" height="20" as="geometry" />
        </mxCell>
        <mxCell id="lWDBViMYoTq2zhWu20VO-142" value="" style="edgeStyle=orthogonalEdgeStyle;rounded=0;orthogonalLoop=1;jettySize=auto;html=1;" edge="1" parent="WIyWlLk6GJQsqaUBKTNV-1" source="lWDBViMYoTq2zhWu20VO-143" target="lWDBViMYoTq2zhWu20VO-145">
          <mxGeometry relative="1" as="geometry" />
        </mxCell>
        <mxCell id="lWDBViMYoTq2zhWu20VO-143" value="a" style="ellipse;whiteSpace=wrap;html=1;" vertex="1" parent="WIyWlLk6GJQsqaUBKTNV-1">
          <mxGeometry x="150" y="281" width="40" height="20" as="geometry" />
        </mxCell>
        <mxCell id="lWDBViMYoTq2zhWu20VO-144" value="" style="edgeStyle=orthogonalEdgeStyle;rounded=0;orthogonalLoop=1;jettySize=auto;html=1;" edge="1" parent="WIyWlLk6GJQsqaUBKTNV-1" source="lWDBViMYoTq2zhWu20VO-145" target="lWDBViMYoTq2zhWu20VO-147">
          <mxGeometry relative="1" as="geometry" />
        </mxCell>
        <mxCell id="lWDBViMYoTq2zhWu20VO-145" value="b" style="ellipse;whiteSpace=wrap;html=1;" vertex="1" parent="WIyWlLk6GJQsqaUBKTNV-1">
          <mxGeometry x="210" y="281" width="40" height="20" as="geometry" />
        </mxCell>
        <mxCell id="lWDBViMYoTq2zhWu20VO-146" value="" style="edgeStyle=orthogonalEdgeStyle;rounded=0;orthogonalLoop=1;jettySize=auto;html=1;" edge="1" parent="WIyWlLk6GJQsqaUBKTNV-1" source="lWDBViMYoTq2zhWu20VO-147" target="lWDBViMYoTq2zhWu20VO-149">
          <mxGeometry relative="1" as="geometry" />
        </mxCell>
        <mxCell id="lWDBViMYoTq2zhWu20VO-147" value="c" style="ellipse;whiteSpace=wrap;html=1;" vertex="1" parent="WIyWlLk6GJQsqaUBKTNV-1">
          <mxGeometry x="270" y="281" width="40" height="20" as="geometry" />
        </mxCell>
        <mxCell id="lWDBViMYoTq2zhWu20VO-148" value="" style="edgeStyle=orthogonalEdgeStyle;rounded=0;orthogonalLoop=1;jettySize=auto;html=1;" edge="1" parent="WIyWlLk6GJQsqaUBKTNV-1" source="lWDBViMYoTq2zhWu20VO-149" target="lWDBViMYoTq2zhWu20VO-151">
          <mxGeometry relative="1" as="geometry" />
        </mxCell>
        <mxCell id="lWDBViMYoTq2zhWu20VO-149" value="d" style="ellipse;whiteSpace=wrap;html=1;" vertex="1" parent="WIyWlLk6GJQsqaUBKTNV-1">
          <mxGeometry x="330" y="281" width="40" height="20" as="geometry" />
        </mxCell>
        <mxCell id="lWDBViMYoTq2zhWu20VO-150" value="" style="edgeStyle=orthogonalEdgeStyle;rounded=0;orthogonalLoop=1;jettySize=auto;html=1;" edge="1" parent="WIyWlLk6GJQsqaUBKTNV-1" source="lWDBViMYoTq2zhWu20VO-151" target="lWDBViMYoTq2zhWu20VO-153">
          <mxGeometry relative="1" as="geometry" />
        </mxCell>
        <mxCell id="lWDBViMYoTq2zhWu20VO-151" value="e" style="ellipse;whiteSpace=wrap;html=1;" vertex="1" parent="WIyWlLk6GJQsqaUBKTNV-1">
          <mxGeometry x="393.5" y="281" width="40" height="20" as="geometry" />
        </mxCell>
        <mxCell id="lWDBViMYoTq2zhWu20VO-152" value="" style="edgeStyle=orthogonalEdgeStyle;rounded=0;orthogonalLoop=1;jettySize=auto;html=1;" edge="1" parent="WIyWlLk6GJQsqaUBKTNV-1" source="lWDBViMYoTq2zhWu20VO-153" target="lWDBViMYoTq2zhWu20VO-155">
          <mxGeometry relative="1" as="geometry" />
        </mxCell>
        <mxCell id="lWDBViMYoTq2zhWu20VO-153" value="f" style="ellipse;whiteSpace=wrap;html=1;" vertex="1" parent="WIyWlLk6GJQsqaUBKTNV-1">
          <mxGeometry x="450" y="281" width="40" height="20" as="geometry" />
        </mxCell>
        <mxCell id="lWDBViMYoTq2zhWu20VO-154" value="" style="edgeStyle=orthogonalEdgeStyle;rounded=0;orthogonalLoop=1;jettySize=auto;html=1;" edge="1" parent="WIyWlLk6GJQsqaUBKTNV-1" source="lWDBViMYoTq2zhWu20VO-155" target="lWDBViMYoTq2zhWu20VO-157">
          <mxGeometry relative="1" as="geometry" />
        </mxCell>
        <mxCell id="lWDBViMYoTq2zhWu20VO-155" value="g" style="ellipse;whiteSpace=wrap;html=1;" vertex="1" parent="WIyWlLk6GJQsqaUBKTNV-1">
          <mxGeometry x="510" y="281" width="40" height="20" as="geometry" />
        </mxCell>
        <mxCell id="lWDBViMYoTq2zhWu20VO-156" value="" style="edgeStyle=orthogonalEdgeStyle;rounded=0;orthogonalLoop=1;jettySize=auto;html=1;" edge="1" parent="WIyWlLk6GJQsqaUBKTNV-1" source="lWDBViMYoTq2zhWu20VO-157" target="lWDBViMYoTq2zhWu20VO-159">
          <mxGeometry relative="1" as="geometry" />
        </mxCell>
        <mxCell id="lWDBViMYoTq2zhWu20VO-157" value="h" style="ellipse;whiteSpace=wrap;html=1;" vertex="1" parent="WIyWlLk6GJQsqaUBKTNV-1">
          <mxGeometry x="570" y="281" width="40" height="20" as="geometry" />
        </mxCell>
        <mxCell id="lWDBViMYoTq2zhWu20VO-158" value="" style="edgeStyle=orthogonalEdgeStyle;rounded=0;orthogonalLoop=1;jettySize=auto;html=1;" edge="1" parent="WIyWlLk6GJQsqaUBKTNV-1" source="lWDBViMYoTq2zhWu20VO-159" target="lWDBViMYoTq2zhWu20VO-161">
          <mxGeometry relative="1" as="geometry" />
        </mxCell>
        <mxCell id="lWDBViMYoTq2zhWu20VO-159" value="i" style="ellipse;whiteSpace=wrap;html=1;" vertex="1" parent="WIyWlLk6GJQsqaUBKTNV-1">
          <mxGeometry x="630" y="281" width="40" height="20" as="geometry" />
        </mxCell>
        <mxCell id="lWDBViMYoTq2zhWu20VO-160" value="" style="edgeStyle=orthogonalEdgeStyle;rounded=0;orthogonalLoop=1;jettySize=auto;html=1;" edge="1" parent="WIyWlLk6GJQsqaUBKTNV-1" source="lWDBViMYoTq2zhWu20VO-161" target="lWDBViMYoTq2zhWu20VO-162">
          <mxGeometry relative="1" as="geometry" />
        </mxCell>
        <mxCell id="lWDBViMYoTq2zhWu20VO-161" value="j" style="ellipse;whiteSpace=wrap;html=1;" vertex="1" parent="WIyWlLk6GJQsqaUBKTNV-1">
          <mxGeometry x="690" y="281" width="40" height="20" as="geometry" />
        </mxCell>
        <mxCell id="lWDBViMYoTq2zhWu20VO-166" value="" style="edgeStyle=orthogonalEdgeStyle;rounded=0;orthogonalLoop=1;jettySize=auto;html=1;" edge="1" parent="WIyWlLk6GJQsqaUBKTNV-1" source="lWDBViMYoTq2zhWu20VO-162" target="lWDBViMYoTq2zhWu20VO-164">
          <mxGeometry relative="1" as="geometry" />
        </mxCell>
        <mxCell id="lWDBViMYoTq2zhWu20VO-162" value="k" style="ellipse;whiteSpace=wrap;html=1;" vertex="1" parent="WIyWlLk6GJQsqaUBKTNV-1">
          <mxGeometry x="751" y="281" width="40" height="20" as="geometry" />
        </mxCell>
        <mxCell id="lWDBViMYoTq2zhWu20VO-163" value="" style="endArrow=classic;html=1;rounded=0;entryX=0;entryY=0.5;entryDx=0;entryDy=0;" edge="1" parent="WIyWlLk6GJQsqaUBKTNV-1">
          <mxGeometry width="50" height="50" relative="1" as="geometry">
            <mxPoint x="118.5" y="290.5" as="sourcePoint" />
            <mxPoint x="149" y="290.5" as="targetPoint" />
          </mxGeometry>
        </mxCell>
        <mxCell id="lWDBViMYoTq2zhWu20VO-167" style="edgeStyle=orthogonalEdgeStyle;rounded=0;orthogonalLoop=1;jettySize=auto;html=1;exitX=0;exitY=1;exitDx=0;exitDy=0;" edge="1" parent="WIyWlLk6GJQsqaUBKTNV-1" source="lWDBViMYoTq2zhWu20VO-164" target="lWDBViMYoTq2zhWu20VO-6">
          <mxGeometry relative="1" as="geometry">
            <mxPoint x="60" y="380" as="targetPoint" />
          </mxGeometry>
        </mxCell>
        <mxCell id="lWDBViMYoTq2zhWu20VO-169" style="edgeStyle=orthogonalEdgeStyle;rounded=0;orthogonalLoop=1;jettySize=auto;html=1;exitX=0;exitY=0;exitDx=0;exitDy=0;" edge="1" parent="WIyWlLk6GJQsqaUBKTNV-1" source="lWDBViMYoTq2zhWu20VO-164" target="lWDBViMYoTq2zhWu20VO-143">
          <mxGeometry relative="1" as="geometry" />
        </mxCell>
        <mxCell id="lWDBViMYoTq2zhWu20VO-164" value="Leftover Dough?" style="rhombus;whiteSpace=wrap;html=1;" vertex="1" parent="WIyWlLk6GJQsqaUBKTNV-1">
          <mxGeometry x="696" y="334" width="150" height="40" as="geometry" />
        </mxCell>
        <mxCell id="lWDBViMYoTq2zhWu20VO-168" value="No" style="text;html=1;align=center;verticalAlign=middle;resizable=0;points=[];autosize=1;strokeColor=none;fillColor=none;" vertex="1" parent="WIyWlLk6GJQsqaUBKTNV-1">
          <mxGeometry x="395" y="358" width="40" height="30" as="geometry" />
        </mxCell>
        <mxCell id="lWDBViMYoTq2zhWu20VO-170" value="Yes" style="text;html=1;align=center;verticalAlign=middle;resizable=0;points=[];autosize=1;strokeColor=none;fillColor=none;" vertex="1" parent="WIyWlLk6GJQsqaUBKTNV-1">
          <mxGeometry x="396" y="318" width="40" height="30" as="geometry" />
        </mxCell>
        <mxCell id="lWDBViMYoTq2zhWu20VO-171" value="" style="edgeStyle=orthogonalEdgeStyle;rounded=0;orthogonalLoop=1;jettySize=auto;html=1;" edge="1" parent="WIyWlLk6GJQsqaUBKTNV-1" source="lWDBViMYoTq2zhWu20VO-172" target="lWDBViMYoTq2zhWu20VO-174">
          <mxGeometry relative="1" as="geometry" />
        </mxCell>
        <mxCell id="lWDBViMYoTq2zhWu20VO-172" value="a" style="ellipse;whiteSpace=wrap;html=1;" vertex="1" parent="WIyWlLk6GJQsqaUBKTNV-1">
          <mxGeometry x="153" y="412" width="40" height="20" as="geometry" />
        </mxCell>
        <mxCell id="lWDBViMYoTq2zhWu20VO-173" value="" style="edgeStyle=orthogonalEdgeStyle;rounded=0;orthogonalLoop=1;jettySize=auto;html=1;" edge="1" parent="WIyWlLk6GJQsqaUBKTNV-1" source="lWDBViMYoTq2zhWu20VO-174" target="lWDBViMYoTq2zhWu20VO-176">
          <mxGeometry relative="1" as="geometry" />
        </mxCell>
        <mxCell id="lWDBViMYoTq2zhWu20VO-174" value="b" style="ellipse;whiteSpace=wrap;html=1;" vertex="1" parent="WIyWlLk6GJQsqaUBKTNV-1">
          <mxGeometry x="213" y="412" width="40" height="20" as="geometry" />
        </mxCell>
        <mxCell id="lWDBViMYoTq2zhWu20VO-175" value="" style="edgeStyle=orthogonalEdgeStyle;rounded=0;orthogonalLoop=1;jettySize=auto;html=1;" edge="1" parent="WIyWlLk6GJQsqaUBKTNV-1" source="lWDBViMYoTq2zhWu20VO-176" target="lWDBViMYoTq2zhWu20VO-178">
          <mxGeometry relative="1" as="geometry" />
        </mxCell>
        <mxCell id="lWDBViMYoTq2zhWu20VO-176" value="c" style="ellipse;whiteSpace=wrap;html=1;" vertex="1" parent="WIyWlLk6GJQsqaUBKTNV-1">
          <mxGeometry x="273" y="412" width="40" height="20" as="geometry" />
        </mxCell>
        <mxCell id="lWDBViMYoTq2zhWu20VO-177" value="" style="edgeStyle=orthogonalEdgeStyle;rounded=0;orthogonalLoop=1;jettySize=auto;html=1;" edge="1" parent="WIyWlLk6GJQsqaUBKTNV-1" source="lWDBViMYoTq2zhWu20VO-178" target="lWDBViMYoTq2zhWu20VO-180">
          <mxGeometry relative="1" as="geometry" />
        </mxCell>
        <mxCell id="lWDBViMYoTq2zhWu20VO-178" value="d" style="ellipse;whiteSpace=wrap;html=1;" vertex="1" parent="WIyWlLk6GJQsqaUBKTNV-1">
          <mxGeometry x="333" y="412" width="40" height="20" as="geometry" />
        </mxCell>
        <mxCell id="lWDBViMYoTq2zhWu20VO-179" value="" style="edgeStyle=orthogonalEdgeStyle;rounded=0;orthogonalLoop=1;jettySize=auto;html=1;" edge="1" parent="WIyWlLk6GJQsqaUBKTNV-1" source="lWDBViMYoTq2zhWu20VO-180" target="lWDBViMYoTq2zhWu20VO-182">
          <mxGeometry relative="1" as="geometry" />
        </mxCell>
        <mxCell id="lWDBViMYoTq2zhWu20VO-180" value="e" style="ellipse;whiteSpace=wrap;html=1;" vertex="1" parent="WIyWlLk6GJQsqaUBKTNV-1">
          <mxGeometry x="396.5" y="412" width="40" height="20" as="geometry" />
        </mxCell>
        <mxCell id="lWDBViMYoTq2zhWu20VO-197" value="" style="edgeStyle=orthogonalEdgeStyle;rounded=0;orthogonalLoop=1;jettySize=auto;html=1;" edge="1" parent="WIyWlLk6GJQsqaUBKTNV-1" source="lWDBViMYoTq2zhWu20VO-182" target="lWDBViMYoTq2zhWu20VO-195">
          <mxGeometry relative="1" as="geometry" />
        </mxCell>
        <mxCell id="lWDBViMYoTq2zhWu20VO-182" value="f" style="ellipse;whiteSpace=wrap;html=1;" vertex="1" parent="WIyWlLk6GJQsqaUBKTNV-1">
          <mxGeometry x="453" y="412" width="40" height="20" as="geometry" />
        </mxCell>
        <mxCell id="lWDBViMYoTq2zhWu20VO-193" value="" style="endArrow=classic;html=1;rounded=0;entryX=0;entryY=0.5;entryDx=0;entryDy=0;" edge="1" parent="WIyWlLk6GJQsqaUBKTNV-1">
          <mxGeometry width="50" height="50" relative="1" as="geometry">
            <mxPoint x="121.5" y="421.5" as="sourcePoint" />
            <mxPoint x="152" y="421.5" as="targetPoint" />
          </mxGeometry>
        </mxCell>
        <mxCell id="lWDBViMYoTq2zhWu20VO-194" style="edgeStyle=orthogonalEdgeStyle;rounded=0;orthogonalLoop=1;jettySize=auto;html=1;exitX=0;exitY=0.5;exitDx=0;exitDy=0;" edge="1" parent="WIyWlLk6GJQsqaUBKTNV-1" source="lWDBViMYoTq2zhWu20VO-195" target="lWDBViMYoTq2zhWu20VO-172">
          <mxGeometry relative="1" as="geometry" />
        </mxCell>
        <mxCell id="lWDBViMYoTq2zhWu20VO-199" value="" style="edgeStyle=orthogonalEdgeStyle;rounded=0;orthogonalLoop=1;jettySize=auto;html=1;" edge="1" parent="WIyWlLk6GJQsqaUBKTNV-1" source="lWDBViMYoTq2zhWu20VO-195" target="lWDBViMYoTq2zhWu20VO-198">
          <mxGeometry relative="1" as="geometry" />
        </mxCell>
        <mxCell id="lWDBViMYoTq2zhWu20VO-195" value="More Dishes?" style="rhombus;whiteSpace=wrap;html=1;" vertex="1" parent="WIyWlLk6GJQsqaUBKTNV-1">
          <mxGeometry x="398" y="479" width="150" height="40" as="geometry" />
        </mxCell>
        <mxCell id="lWDBViMYoTq2zhWu20VO-196" value="Yes" style="text;html=1;align=center;verticalAlign=middle;resizable=0;points=[];autosize=1;strokeColor=none;fillColor=none;" vertex="1" parent="WIyWlLk6GJQsqaUBKTNV-1">
          <mxGeometry x="285" y="475" width="40" height="30" as="geometry" />
        </mxCell>
        <mxCell id="lWDBViMYoTq2zhWu20VO-198" value="Stop/Complete" style="whiteSpace=wrap;html=1;" vertex="1" parent="WIyWlLk6GJQsqaUBKTNV-1">
          <mxGeometry x="413" y="558" width="120" height="60" as="geometry" />
        </mxCell>
        <mxCell id="lWDBViMYoTq2zhWu20VO-200" value="No" style="text;html=1;align=center;verticalAlign=middle;resizable=0;points=[];autosize=1;strokeColor=none;fillColor=none;" vertex="1" parent="WIyWlLk6GJQsqaUBKTNV-1">
          <mxGeometry x="465" y="519" width="40" height="30" as="geometry" />
        </mxCell>
      </root>
    </mxGraphModel>
  </diagram>
</mxfile>
